<svg width="256" height="256" viewBox="0 0 256 256" fill="none" xmlns="http://www.w3.org/2000/svg">
<g clip-path="url(#clip0_459_2)">
<g clip-path="url(#clip1_459_2)">
<path d="M142.557 124.737C160.641 131.053 180.421 121.513 186.737 103.429C193.053 85.3451 183.513 65.5651 165.429 59.2493C147.345 52.9335 127.565 62.4735 121.249 80.5575C114.933 98.6415 124.473 118.422 142.557 124.737Z" fill="#FFDE5A"/>
<path d="M140.687 130.092C119.68 122.755 108.558 99.6951 115.895 78.6879C123.231 57.6807 146.291 46.5588 167.299 53.8956C188.306 61.2323 199.428 84.2922 192.091 105.299C184.754 126.307 161.694 137.428 140.687 130.092ZM163.559 64.603C148.456 59.3284 131.878 67.3243 126.603 82.427C121.328 97.5298 129.324 114.108 144.427 119.383C159.53 124.658 176.108 116.662 181.383 101.559C186.658 86.4561 178.662 69.8776 163.559 64.603Z" fill="#FFDE5A"/>
<path d="M170.057 45.999C167.1 44.9664 165.54 41.732 166.572 38.7751L172.652 21.3672C173.685 18.4104 176.919 16.8504 179.876 17.8831C182.833 18.9158 184.393 22.1502 183.36 25.1071L177.281 42.5149C176.248 45.4718 173.013 47.0317 170.057 45.999Z" fill="#FFDE5A"/>
<path d="M128.11 166.104C125.153 165.071 123.593 161.836 124.626 158.88L130.706 141.472C131.738 138.515 134.973 136.955 137.93 137.988C140.887 139.02 142.447 142.255 141.414 145.212L135.334 162.619C134.301 165.577 131.067 167.136 128.11 166.104Z" fill="#FFDE5A"/>
<path d="M220.879 121.36L203.471 115.281C200.515 114.248 198.955 111.014 199.987 108.057C201.02 105.1 204.254 103.54 207.211 104.573L224.619 110.652C227.576 111.685 229.136 114.919 228.103 117.876C227.071 120.833 223.837 122.393 220.879 121.36Z" fill="#FFDE5A"/>
<path d="M100.775 79.4141L83.3672 73.3344C80.4103 72.3017 78.8503 69.0673 79.883 66.1104C80.9157 63.1535 84.1501 61.5936 87.107 62.6263L104.515 68.7059C107.472 69.7386 109.032 72.973 107.999 75.9299C106.966 78.8868 103.732 80.4467 100.775 79.4141Z" fill="#FFDE5A"/>
<path d="M201.113 73.7192C199.743 73.2408 198.555 72.2395 197.875 70.8287C196.515 68.0075 197.699 64.6173 200.52 63.2573L217.128 55.2477C219.949 53.887 223.339 55.0703 224.699 57.892C226.06 60.7132 224.876 64.1034 222.055 65.4634L205.447 73.473C204.036 74.1538 202.483 74.1976 201.113 73.7192Z" fill="#FFDE5A"/>
<path d="M183.761 162.945C182.391 162.467 181.203 161.466 180.523 160.055L172.513 143.447C171.152 140.625 172.336 137.235 175.157 135.875C177.978 134.514 181.368 135.699 182.728 138.519L190.739 155.128C192.099 157.949 190.915 161.339 188.094 162.699C186.684 163.38 185.132 163.424 183.761 162.945Z" fill="#FFDE5A"/>
<path d="M128.495 48.3571C127.125 47.8787 125.937 46.8774 125.257 45.4666L117.246 28.8589C115.886 26.0377 117.07 22.6482 119.891 21.2876C122.712 19.9269 126.102 21.1102 127.462 23.9318L135.473 40.5395C136.833 43.3607 135.65 46.7502 132.828 48.1109C131.418 48.7917 129.866 48.8358 128.495 48.3571Z" fill="#FFDE5A"/>
</g>
<g clip-path="url(#clip2_459_2)">
<path d="M76.28 238C72.3235 238 68.4842 237.224 64.8676 235.695C61.3764 234.218 58.2413 232.105 55.55 229.413C52.8586 226.722 50.7452 223.587 49.2681 220.095C47.7387 216.479 46.9631 212.64 46.9631 208.683C46.9631 203.996 48.0977 199.332 50.2436 195.198C52.0908 191.639 54.6891 188.457 57.8077 185.92V114.97C57.8079 107.267 64.075 101 71.7786 101H80.7817C88.485 101 94.7524 107.267 94.7524 114.97V185.92C97.8709 188.457 100.469 191.639 102.316 195.198C104.463 199.332 105.597 203.996 105.597 208.683C105.597 212.64 104.822 216.48 103.292 220.095C101.815 223.587 99.7017 226.722 97.0101 229.413C94.3187 232.105 91.1837 234.218 87.6921 235.695C84.0764 237.224 80.2368 238 76.28 238ZM71.7786 106.753C67.2478 106.753 63.5617 110.44 63.5617 114.97V187.332C63.5617 188.25 63.1241 189.112 62.3837 189.654C56.3309 194.083 52.7171 201.196 52.7171 208.683C52.7171 221.676 63.2874 232.246 76.2803 232.246C89.2732 232.246 99.8435 221.675 99.8435 208.683C99.8435 201.196 96.2297 194.083 90.1766 189.654C89.4362 189.112 88.9986 188.25 88.9986 187.332V114.97C88.9986 110.44 85.3125 106.753 80.7817 106.753H71.7786Z" fill="#FC8C78"/>
<path d="M82.3884 191.874V129.064C82.3884 126.57 80.3672 124.549 77.8741 124.549H74.6862C72.193 124.549 70.1719 126.57 70.1719 129.064V191.874C63.3048 194.37 58.3997 200.954 58.3997 208.684C58.3997 218.559 66.4049 226.564 76.2801 226.564C86.1553 226.564 94.1609 218.559 94.1609 208.684C94.1606 200.954 89.2557 194.37 82.3884 191.874ZM72.3197 203.118C70.9824 204.304 70.1171 205.866 69.8176 207.633C69.6602 208.564 69.6706 209.501 69.8492 210.417C70.0782 211.592 69.311 212.731 68.1353 212.96C67.9953 212.988 67.8557 213.001 67.7182 213.001C66.7013 213.001 65.7937 212.282 65.5919 211.247C65.3131 209.816 65.2964 208.356 65.5416 206.909C66.0009 204.195 67.3863 201.697 69.4419 199.873C70.338 199.079 71.7085 199.161 72.5034 200.057C73.2977 200.953 73.2158 202.323 72.3197 203.118Z" fill="#FC8C78"/>
<path d="M46.9693 122.054C46.9693 123.356 45.9135 124.413 44.6106 124.413H39.7622C38.4593 124.413 37.4033 123.356 37.4033 122.054V119.484C37.4033 118.181 38.4593 117.125 39.7622 117.125H44.6106C45.9135 117.125 46.9693 118.181 46.9693 119.484V122.054Z" fill="#FC8C78"/>
<path d="M46.9693 137.43C46.9693 138.733 45.9135 139.789 44.6106 139.789H39.7622C38.4593 139.789 37.4033 138.734 37.4033 137.43V134.86C37.4033 133.557 38.4593 132.501 39.7622 132.501H44.6106C45.9135 132.501 46.9693 133.557 46.9693 134.86V137.43Z" fill="#FC8C78"/>
<path d="M46.9693 152.807C46.9693 154.11 45.9135 155.166 44.6106 155.166H39.7622C38.4593 155.166 37.4033 154.11 37.4033 152.807V150.237C37.4033 148.935 38.4593 147.878 39.7622 147.878H44.6106C45.9135 147.878 46.9693 148.934 46.9693 150.237V152.807Z" fill="#FC8C78"/>
<path d="M46.9693 168.184C46.9693 169.486 45.9135 170.543 44.6106 170.543H39.7622C38.4593 170.543 37.4033 169.487 37.4033 168.184V165.614C37.4033 164.311 38.4593 163.255 39.7622 163.255H44.6106C45.9135 163.255 46.9693 164.311 46.9693 165.614V168.184Z" fill="#FC8C78"/>
<path d="M46.9693 183.56C46.9693 184.863 45.9135 185.919 44.6106 185.919H39.7622C38.4593 185.919 37.4033 184.863 37.4033 183.56V180.99C37.4033 179.688 38.4593 178.631 39.7622 178.631H44.6106C45.9135 178.631 46.9693 179.688 46.9693 180.99V183.56Z" fill="#FC8C78"/>
</g>
</g>
<defs>
<clipPath id="clip0_459_2">
<rect width="256" height="256" fill="white"/>
</clipPath>
<clipPath id="clip1_459_2">
<rect width="157" height="157" fill="white" transform="translate(105.766 -8) rotate(19.2517)"/>
</clipPath>
<clipPath id="clip2_459_2">
<rect width="137" height="137" fill="white" transform="translate(3 101)"/>
</clipPath>
</defs>
</svg>
